<?xml version="1.0" encoding="UTF-8" standalone="no"?>
<svg
   width="90.676mm"
   height="3.4101mm"
   version="1.1"
   viewBox="0 0 90.676 3.4101"
   id="svg16"
   xmlns="http://www.w3.org/2000/svg"
>
  <g
     transform="translate(-50.744 -71.679)"
     id="g14">
    <path
       transform="matrix(.26458 0 0 .26458 50.744 71.665)"
       d="m0.019531 0.068359 0.015625 12.85c0.47089-0.01474 0.84323-0.21319 1.1152-1.2676 0.74043-2.8703 3.4165-4.9794 5.9258-5.041 2.5646 0.060771 5.2999 2.1702 6.0566 5.041 0.26287 0.99718 0.61978 1.2212 1.0645 1.2559v0.01172c0.013-4.04e-4 0.02425-0.0052 0.03711-0.0059 0.0129 6.83e-4 0.02407 0.0055 0.03711 0.0059v-0.01172c0.4381-0.03488 0.79178-0.25929 1.0508-1.2559 0.74596-2.8703 3.4407-4.9794 5.9688-5.041 2.5837 0.060775 5.3392 2.1702 6.1016 5.041 0.26731 1.0065 0.63194 1.2265 1.0859 1.2578v0.0098c0.01102-3.44e-4 0.02034-0.0053 0.03125-0.0059 0.01095 5.36e-4 0.02019 0.0055 0.03125 0.0059v-0.0098c0.44178-0.0317 0.79639-0.25238 1.0566-1.2578 0.74292-2.8703 3.4276-4.9794 5.9453-5.041 2.5732 0.060775 5.3169 2.1702 6.0762 5.041 0.26374 0.99719 0.62219 1.2212 1.0684 1.2559v0.01172c0.01285-4.05e-4 0.02426-0.0051 0.03711-0.0059 0.01285 6.84e-4 0.02426 0.0055 0.03711 0.0059v-0.01172c0.43957-0.03477 0.79481-0.25927 1.0547-1.2559 0.74847-2.8703 3.4517-4.9794 5.9883-5.041 2.5924 0.060775 5.3581 2.1702 6.123 5.041 0.27067 1.0157 0.64016 1.2317 1.1016 1.2598v0.0078c0.0089-2.8e-4 0.01652-0.0035 0.02539-0.0039 0.0088 3.98e-4 0.01647 0.0036 0.02539 0.0039v-0.0078c0.4465-0.02851 0.80433-0.24536 1.0664-1.2598 0.74152-2.8703 3.4206-4.9794 5.9336-5.041 2.5684 0.060775 5.3085 2.1702 6.0664 5.041 0.26324 0.99719 0.62108 1.2212 1.0664 1.2559v0.01172c0.01285-4.05e-4 0.02426-0.0051 0.03711-0.0059 0.01285 6.84e-4 0.02231 0.0055 0.03516 0.0059v-0.01172c0.43875-0.03477 0.79335-0.25927 1.0527-1.2559 0.74706-2.8703 3.4467-4.9794 5.9785-5.041 2.5875 0.060775 5.3458 2.1702 6.1094 5.041 0.2677 1.0065 0.63322 1.2265 1.0879 1.2578v0.0098c0.01096-3.44e-4 0.02029-0.0051 0.03125-0.0059 0.01096 5.37e-4 0.01991 0.0055 0.03125 0.0059v-0.0098c0.44244-0.03175 0.79796-0.25236 1.0586-1.2578 0.74402-2.8703 3.4336-4.9794 5.9551-5.041 2.577 0.060775 5.3236 2.1702 6.084 5.041 0.26411 0.99719 0.62349 1.2212 1.0703 1.2559v0.01172c0.01285-4.08e-4 0.02426-0.0047 0.03711-0.0059 0.01285 6.84e-4 0.02426 0.0055 0.03711 0.0059v-0.01172c0.44022-0.03477 0.79639-0.25927 1.0566-1.2559 0.74957-2.8703 3.4558-4.9794 5.9961-5.041 2.5962 0.060775 5.3667 2.1702 6.1328 5.041 0.28138 1.0543 0.66717 1.2528 1.1543 1.2676l0.0176-12.85h-107.18z"
       stroke="#000"
       stroke-width=".037795"
       id="path4" />
    <rect
       x="50.757"
       y="71.665"
       width="1.8793"
       height="3.5015"
       fill-opacity="0"
       style="paint-order:stroke fill markers"
       id="rect6" />
    <rect
       x="50.757"
       y="71.749"
       width="2.1633"
       height="3.418"
       ry="0"
       fill-opacity="0"
       style="paint-order:stroke fill markers"
       id="rect8" />
    <path
       d="m80.898 71.684 0.0041 3.3998c0.12491-0.0039 0.22367-0.05641 0.29582-0.33538 0.1964-0.75944 0.90622-1.3175 1.5718-1.3338 0.68026 0.01608 1.4058 0.5742 1.6065 1.3338 0.06972 0.26384 0.1644 0.32311 0.28235 0.33228v0.0031c0.0034-1.07e-4 0.0064-0.0014 0.0098-0.0016 0.0034 1.81e-4 0.0064 0.0015 0.0098 0.0016v-0.0031c0.11621-0.0092 0.21002-0.06861 0.27872-0.33228 0.19787-0.75944 0.91265-1.3175 1.5832-1.3338 0.68534 0.01608 1.4162 0.5742 1.6185 1.3338 0.0709 0.2663 0.16762 0.32451 0.28805 0.3328v0.0026c0.0029-9.1e-5 0.0054-0.0014 0.0083-0.0016 0.0029 1.42e-4 0.0053 0.0015 0.0083 0.0016v-0.0026c0.11718-0.0084 0.21124-0.06677 0.28027-0.3328 0.19706-0.75944 0.90917-1.3175 1.577-1.3338 0.68255 0.01608 1.4103 0.5742 1.6117 1.3338 0.06995 0.26384 0.16504 0.32311 0.28338 0.33228v0.0031c0.0034-1.08e-4 0.0064-0.0014 0.0098-0.0016 0.0034 1.81e-4 0.0064 0.0015 0.0098 0.0016v-0.0031c0.1166-0.0092 0.21083-0.0686 0.27976-0.33228 0.19853-0.75944 0.91558-1.3175 1.5884-1.3338 0.68764 0.01608 1.4212 0.5742 1.6242 1.3338 0.07178 0.26874 0.1698 0.32589 0.29219 0.33331v0.0021c0.0024-7.4e-5 0.0044-9.26e-4 0.0067-1e-3 0.0023 1.05e-4 0.0044 9.52e-4 0.0067 1e-3v-0.0021c0.11844-0.0075 0.21335-0.06492 0.28287-0.33331 0.19669-0.75944 0.90731-1.3175 1.5739-1.3338 0.68127 0.01608 1.4081 0.5742 1.6091 1.3338 0.06982 0.26384 0.16474 0.32311 0.28287 0.33228v0.0031c0.0034-1.08e-4 0.0064-0.0014 0.0098-0.0016 0.0034 1.81e-4 0.0059 0.0015 0.0093 0.0016v-0.0031c0.11638-0.0092 0.21044-0.0686 0.27924-0.33228 0.19816-0.75944 0.91425-1.3175 1.5858-1.3338 0.68634 0.01608 1.418 0.5742 1.6205 1.3338 0.071 0.2663 0.16797 0.32451 0.28857 0.3328v0.0026c3e-3 -9.1e-5 5e-3 -0.0013 8e-3 -0.0016 3e-3 1.42e-4 5e-3 0.0015 8e-3 0.0016v-0.0026c0.11737-0.0084 0.21167-0.06677 0.28081-0.3328 0.19736-0.75944 0.91076-1.3175 1.5796-1.3338 0.68355 0.01608 1.4121 0.5742 1.6138 1.3338 0.0701 0.26384 0.16536 0.32311 0.28387 0.33228v0.0031c3e-3 -1.08e-4 6e-3 -0.0012 0.01-0.0016 3e-3 1.81e-4 6e-3 0.0015 0.01 0.0016v-0.0031c0.11676-0.0092 0.21125-0.0686 0.28027-0.33228 0.19883-0.75944 0.91666-1.3175 1.5905-1.3338 0.68865 0.01608 1.4235 0.5742 1.6267 1.3338 0.0746 0.27896 0.17698 0.33148 0.30619 0.33538l5e-3 -3.3998h-28.429z"
       stroke="#000"
       stroke-width=".010013"
       id="path10" />
    <path
       d="m111.15 71.684 4e-3 3.3998c0.12492-0.0039 0.22365-0.05642 0.2958-0.33538 0.19634-0.75943 0.90602-1.3175 1.5715-1.3338 0.68008 0.01608 1.4054 0.5742 1.6061 1.3338 0.0696 0.26384 0.16439 0.32312 0.28233 0.33228v0.0031c3e-3 -1.07e-4 6e-3 -0.0014 0.01-0.0016 3e-3 1.81e-4 6e-3 0.0015 0.01 0.0016v-0.0031c0.11617-0.0092 0.20998-0.06862 0.27866-0.33228 0.19783-0.75943 0.91245-1.3175 1.5829-1.3338 0.6852 0.01608 1.4159 0.5742 1.6181 1.3338 0.0707 0.2663 0.16764 0.32451 0.288 0.3328v0.0026c3e-3 -9.1e-5 5e-3 -0.0014 7e-3 -0.0016 3e-3 1.42e-4 5e-3 0.0015 7e-3 0.0016v-0.0026c0.11715-0.0084 0.21118-0.06678 0.28018-0.3328 0.19702-0.75943 0.909-1.3175 1.5767-1.3338 0.6824 0.01608 1.4101 0.5742 1.6114 1.3338 0.0697 0.26384 0.16504 0.32312 0.28333 0.33228v0.0031c3e-3 -1.08e-4 6e-3 -0.0014 0.01-0.0016 3e-3 1.81e-4 6e-3 0.0015 0.01 0.0016v-0.0031c0.11658-0.0092 0.21082-0.06861 0.27972-0.33228 0.19845-0.75943 0.91537-1.3175 1.588-1.3338 0.68753 0.01608 1.421 0.5742 1.6238 1.3338 0.0714 0.26874 0.16978 0.32589 0.29213 0.33331v0.0021c2e-3 -7.4e-5 4e-3 -9.27e-4 6e-3 -1e-3 2e-3 1.05e-4 4e-3 9.53e-4 6e-3 1e-3v-0.0021c0.11842-0.0075 0.21331-0.06493 0.28283-0.33331 0.19667-0.75943 0.90713-1.3175 1.5736-1.3338 0.68112 0.01608 1.4078 0.5742 1.6088 1.3338 0.0696 0.26384 0.16469 0.32312 0.28278 0.33228v0.0031c3e-3 -1.08e-4 6e-3 -0.0014 0.01-0.0016 3e-3 1.81e-4 6e-3 0.0015 8e-3 0.0016v-0.0031c0.11631-0.0092 0.21034-0.06861 0.27912-0.33228 0.19809-0.75943 0.91407-1.3175 1.5855-1.3338 0.68621 0.01608 1.4177 0.5742 1.6202 1.3338 0.0708 0.2663 0.16789 0.32451 0.28851 0.3328v0.0026c3e-3 -9.1e-5 5e-3 -0.0013 7e-3 -0.0016 3e-3 1.42e-4 5e-3 0.0015 7e-3 0.0016v-0.0026c0.11732-0.0084 0.21164-0.06678 0.28073-0.3328 0.19734-0.75943 0.91063-1.3175 1.5793-1.3338 0.68339 0.01608 1.4118 0.5742 1.6135 1.3338 0.0699 0.26384 0.16535 0.32312 0.2838 0.33228v0.0031c3e-3 -1.08e-4 6e-3 -0.0012 0.01-0.0016 3e-3 1.81e-4 6e-3 0.0015 0.01 0.0016v-0.0031c0.11679-0.0092 0.2112-0.06861 0.28024-0.33228 0.1988-0.75943 0.91648-1.3175 1.5902-1.3338 0.68851 0.01608 1.4232 0.5742 1.6264 1.3338 0.0745 0.27897 0.17697 0.33148 0.30617 0.33538l5e-3 -3.3998h-28.422z"
       stroke="#000"
       stroke-width=".010012"
       id="path12" />
  </g>
</svg>
